<?xml version="1.0" standalone="no"?>
<!DOCTYPE svg PUBLIC "-//W3C//DTD SVG 1.1//EN" "http://www.w3.org/Graphics/SVG/1.1/DTD/svg11.dtd">
<svg width="100%" height="100%" viewBox="0 0 1235 650" version="1.1" xmlns="http://www.w3.org/2000/svg" xmlns:xlink="http://www.w3.org/1999/xlink" xml:space="preserve" style="fill-rule:evenodd;clip-rule:evenodd;stroke-linejoin:round;stroke-miterlimit:1.41421;">
    <rect x="0" y="0" width="1235" height="650" style="fill:rgb(69,69,70);fill-rule:nonzero;"/>
    <g>
        <path d="M0,75L1235,75M0,175L1235,175M0,275L1235,275M0,375L1235,375M0,475L1235,475M0,575L1235,575" style="fill:white;fill-rule:nonzero;"/>
        <path d="M1235,600L0,600L0,550L1235,550L1235,600ZM1235,500L0,500L0,450L1235,450L1235,500ZM1235,400L0,400L0,350L1235,350L1235,400ZM1235,300L0,300L0,250L1235,250L1235,300ZM1235,200L0,200L0,150L1235,150L1235,200ZM1235,100L0,100L0,50L1235,50L1235,100Z" style="fill:rgb(32,32,32);"/>
    </g>
    <rect x="0" y="0" width="494" height="350" style="fill:rgb(69,69,70);fill-rule:nonzero;"/>
    <path d="M27.8,38.8L23.3,52.6L35.1,44L46.9,52.6L42.4,38.8L54.1,30.2L39.6,30.2L35.1,16.4L30.6,30.2L16.1,30.2M92.8,38.8L88.3,52.6L100.1,44L111.9,52.6L107.4,38.8L119.1,30.2L104.6,30.2L100.1,16.4L95.6,30.2L81.1,30.2M157.8,38.8L153.3,52.6L165.1,44L176.9,52.6L172.4,38.8L184.1,30.2L169.6,30.2L165.1,16.4L160.6,30.2L146.1,30.2M222.8,38.8L218.3,52.6L230.1,44L241.9,52.6L237.4,38.8L249.1,30.2L234.6,30.2L230.1,16.4L225.6,30.2L211.1,30.2M287.8,38.8L283.3,52.6L295.1,44L306.9,52.6L302.4,38.8L314.1,30.2L299.6,30.2L295.1,16.4L290.6,30.2L276.1,30.2M352.8,38.8L348.3,52.6L360.1,44L371.9,52.6L367.4,38.8L379.1,30.2L364.6,30.2L360.1,16.4L355.6,30.2L341.1,30.2M417.8,38.8L413.3,52.6L425.1,44L436.9,52.6L432.4,38.8L444.1,30.2L429.6,30.2L425.1,16.4L420.6,30.2L406.1,30.2M63.1,76.4L48.6,76.4L60.3,84.9L55.8,98.7L67.6,90.2L79.4,98.7L74.9,84.9L86.6,76.4L72.1,76.4L67.6,62.5M128.1,76.4L113.6,76.4L125.3,84.9L120.8,98.7L132.6,90.2L144.4,98.7L139.9,84.9L151.6,76.4L137.1,76.4L132.6,62.5M193.1,76.4L178.6,76.4L190.3,84.9L185.8,98.7L197.6,90.2L209.4,98.7L204.9,84.9L216.6,76.4L202.1,76.4L197.6,62.5M258.1,76.4L243.6,76.4L255.3,84.9L250.8,98.7L262.6,90.2L274.4,98.7L269.9,84.9L281.6,76.4L267.1,76.4L262.6,62.5M323.1,76.4L308.6,76.4L320.3,84.9L315.8,98.7L327.6,90.2L339.4,98.7L334.9,84.9L346.6,76.4L332.1,76.4L327.6,62.5M388.1,76.4L373.6,76.4L385.3,84.9L380.8,98.7L392.6,90.2L404.4,98.7L399.9,84.9L411.6,76.4L397.1,76.4L392.6,62.5M453.1,76.4L438.6,76.4L450.3,84.9L445.8,98.7L457.6,90.2L469.4,98.7L464.9,84.9L476.6,76.4L462.1,76.4L457.6,62.5M23.3,144.9L35.1,136.3L46.9,144.9L42.4,131.1L54.1,122.5L39.6,122.5L35.1,108.7L30.6,122.5L16.1,122.5L27.8,131.1M104.6,122.5L100.1,108.7L95.6,122.5L81.1,122.5L92.8,131.1L88.3,144.9L100.1,136.3L111.9,144.9L107.4,131.1L119.1,122.5M169.6,122.5L165.1,108.7L160.6,122.5L146.1,122.5L157.8,131.1L153.3,144.9L165.1,136.3L176.9,144.9L172.4,131.1L184.1,122.5M234.6,122.5L230.1,108.7L225.6,122.5L211.1,122.5L222.8,131.1L218.3,144.9L230.1,136.3L241.9,144.9L237.4,131.1L249.1,122.5M299.6,122.5L295.1,108.7L290.6,122.5L276.1,122.5L287.8,131.1L283.3,144.9L295.1,136.3L306.9,144.9L302.4,131.1L314.1,122.5M364.6,122.5L360.1,108.7L355.6,122.5L341.1,122.5L352.8,131.1L348.3,144.9L360.1,136.3L371.9,144.9L367.4,131.1L379.1,122.5M429.6,122.5L425.1,108.7L420.6,122.5L406.1,122.5L417.8,131.1L413.3,144.9L425.1,136.3L436.9,144.9L432.4,131.1L444.1,122.5M72.1,168.7L67.6,154.8L63.1,168.7L48.6,168.7L60.3,177.2L55.8,191L67.6,182.5L79.4,191L74.9,177.2L86.6,168.7M137.1,168.7L132.6,154.8L128.1,168.7L113.6,168.7L125.3,177.2L120.8,191L132.6,182.5L144.4,191L139.9,177.2L151.6,168.7M202.1,168.7L197.6,154.8L193.1,168.7L178.6,168.7L190.3,177.2L185.8,191L197.6,182.5L209.4,191L204.9,177.2L216.6,168.7M267.1,168.7L262.6,154.8L258.1,168.7L243.6,168.7L255.3,177.2L250.8,191L262.6,182.5L274.4,191L269.9,177.2L281.6,168.7M332.1,168.7L327.6,154.8L323.1,168.7L308.6,168.7L320.3,177.2L315.8,191L327.6,182.5L339.4,191L334.9,177.2L346.6,168.7M397.1,168.7L392.6,154.8L388.1,168.7L373.6,168.7L385.3,177.2L380.8,191L392.6,182.5L404.4,191L399.9,177.2L411.6,168.7M457.6,154.8L453.1,168.7L438.6,168.7L450.3,177.2L445.8,191L457.6,182.5L469.4,191L464.9,177.2L476.6,168.7L462.1,168.7M23.3,237.2L35.1,228.6L46.9,237.2L42.4,223.4L54.1,214.8L39.6,214.8L35.1,201L30.6,214.8L16.1,214.8L27.8,223.4M104.6,214.8L100.1,201L95.6,214.8L81.1,214.8L92.8,223.4L88.3,237.2L100.1,228.6L111.9,237.2L107.4,223.4L119.1,214.8M169.6,214.8L165.1,201L160.6,214.8L146.1,214.8L157.8,223.4L153.3,237.2L165.1,228.6L176.9,237.2L172.4,223.4L184.1,214.8M234.6,214.8L230.1,201L225.6,214.8L211.1,214.8L222.8,223.4L218.3,237.2L230.1,228.6L241.9,237.2L237.4,223.4L249.1,214.8M299.6,214.8L295.1,201L290.6,214.8L276.1,214.8L287.8,223.4L283.3,237.2L295.1,228.6L306.9,237.2L302.4,223.4L314.1,214.8M364.6,214.8L360.1,201L355.6,214.8L341.1,214.8L352.8,223.4L348.3,237.2L360.1,228.6L371.9,237.2L367.4,223.4L379.1,214.8M429.6,214.8L425.1,201L420.6,214.8L406.1,214.8L417.8,223.4L413.3,237.2L425.1,228.6L436.9,237.2L432.4,223.4L444.1,214.8M74.9,269.5L86.6,261L72.1,261L67.6,247.1L63.1,261L48.6,261L60.3,269.5L55.8,283.3L67.6,274.8L79.4,283.3M139.9,269.5L151.6,261L137.1,261L132.6,247.1L128.1,261L113.6,261L125.3,269.5L120.8,283.3L132.6,274.8L144.4,283.3M204.9,269.5L216.6,261L202.1,261L197.6,247.1L193.1,261L178.6,261L190.3,269.5L185.8,283.3L197.6,274.8L209.4,283.3M269.9,269.5L281.6,261L267.1,261L262.6,247.1L258.1,261L243.6,261L255.3,269.5L250.8,283.3L262.6,274.8L274.4,283.3M334.9,269.5L346.6,261L332.1,261L327.6,247.1L323.1,261L308.6,261L320.3,269.5L315.8,283.3L327.6,274.8L339.4,283.3M399.9,269.5L411.6,261L397.1,261L392.6,247.1L388.1,261L373.6,261L385.3,269.5L380.8,283.3L392.6,274.8L404.4,283.3M462.1,261L457.6,247.1L453.1,261L438.6,261L450.3,269.5L445.8,283.3L457.6,274.8L469.4,283.3L464.9,269.5L476.6,261M39.6,307.1L35.1,293.3L30.6,307.1L16.1,307.1L27.8,315.7L23.3,329.5L35.1,320.9L46.9,329.5L42.4,315.7L54.1,307.1M104.6,307.1L100.1,293.3L95.6,307.1L81.1,307.1L92.8,315.7L88.3,329.5L100.1,320.9L111.9,329.5L107.4,315.7L119.1,307.1M169.6,307.1L165.1,293.3L160.6,307.1L146.1,307.1L157.8,315.7L153.3,329.5L165.1,320.9L176.9,329.5L172.4,315.7L184.1,307.1M234.6,307.1L230.1,293.3L225.6,307.1L211.1,307.1L222.8,315.7L218.3,329.5L230.1,320.9L241.9,329.5L237.4,315.7L249.1,307.1M299.6,307.1L295.1,293.3L290.6,307.1L276.1,307.1L287.8,315.7L283.3,329.5L295.1,320.9L306.9,329.5L302.4,315.7L314.1,307.1M364.6,307.1L360.1,293.3L355.6,307.1L341.1,307.1L352.8,315.7L348.3,329.5L360.1,320.9L371.9,329.5L367.4,315.7L379.1,307.1M429.6,307.1L425.1,293.3L420.6,307.1L406.1,307.1L417.8,315.7L413.3,329.5L425.1,320.9L436.9,329.5L432.4,315.7L444.1,307.1" style="fill:rgb(32,32,32);fill-rule:nonzero;"/>
</svg>
